# xmcd
#
# Track frame offsets:
#        150
#        22415
#        40907
#        61357
#        82327
#        103802
#        123197
#        139077
#        154145
#        173455
#        187740
#        203155
#        222880
#        241615
#        257052
#        273837
#        292705
#        314955
#
# Disc length: 4613 seconds
#
# Revision: 5
# Processed by: cddbd v1.5.1PL2 Copyright (c) Steve Scherf et al.
# Submitted via: ExactAudioCopy v0.95b3
#
DISCID=03120312
DTITLE=Arrested Development - Greatest Hits
DYEAR=2001
DGENRE=Hip-Hop
TTITLE0=People Everyday (Metamorphosis Radio Edit)
TTITLE1=Mr. Wendal
TTITLE2=Tennessee
TTITLE3=United Front
TTITLE4=Revolution
TTITLE5=Natural
TTITLE6=Tell Me Something (Let Me Know)
TTITLE7=Fountain Of Youth
TTITLE8=Can U Hear Me?
TTITLE9=Africa's Inside Me
TTITLE10=Shell
TTITLE11=Give A Man A Fish
TTITLE12=Fishing 4 Religion
TTITLE13=Mama's Always On Stage
TTITLE14=Like Marvin Gaye Said (What's Going On)
TTITLE15=Ease My Mind
TTITLE16=Natural (Unplugged)
TTITLE17=People Everyday (Unplugged)
EXTD=
EXTT0=
EXTT1=
EXTT2=
EXTT3=
EXTT4=
EXTT5=
EXTT6=
EXTT7=
EXTT8=
EXTT9=
EXTT10=
EXTT11=
EXTT12=
EXTT13=
EXTT14=
EXTT15=
EXTT16=
EXTT17=
PLAYORDER=
